<svg width="39" height="41" viewBox="0 0 39 41" fill="none" xmlns="http://www.w3.org/2000/svg">
<path d="M33.6371 20.147C34.1619 19.5717 34.1094 18.6303 33.5322 18.1073L20.0981 6.39225C19.4684 5.86925 18.5238 5.86925 17.8941 6.39225L4.46006 18.7349C3.88282 19.2579 3.83034 20.1993 4.40759 20.7746L4.72245 21.1407C5.29969 21.716 6.1918 21.7683 6.71656 21.2976L7.71362 20.4085V33.5356C7.71362 34.3201 8.34334 35 9.18297 35H14.4306C15.2178 35 15.9 34.3724 15.9 33.5356V24.3309H22.617V33.5356C22.617 34.3201 23.1943 35 23.9814 35H29.5439C30.3311 35 31.0133 34.3724 31.0133 33.5356V20.5654C31.0133 20.5654 31.2757 20.8269 31.643 21.0884C32.0103 21.4022 32.6925 21.1407 33.2698 20.5654L33.6371 20.147Z" fill="#484B4E"/>
</svg>
